<svg width="155" height="155" viewBox="0 0 155 155" fill="none" xmlns="http://www.w3.org/2000/svg">
<path d="M0 0H3.77953V3.77953H0V0ZM3.77953 0H7.55906V3.77953H3.77953V0ZM7.55906 0H11.3386V3.77953H7.55906V0ZM11.3386 0H15.1181V3.77953H11.3386V0ZM15.1181 0H18.8976V3.77953H15.1181V0ZM18.8976 0H22.6772V3.77953H18.8976V0ZM22.6772 0H26.4567V3.77953H22.6772V0ZM30.2362 0H34.0157V3.77953H30.2362V0ZM34.0157 0H37.7953V3.77953H34.0157V0ZM52.9134 0H56.6929V3.77953H52.9134V0ZM64.252 0H68.0315V3.77953H64.252V0ZM71.811 0H75.5906V3.77953H71.811V0ZM79.3701 0H83.1496V3.77953H79.3701V0ZM90.7087 0H94.4882V3.77953H90.7087V0ZM98.2677 0H102.047V3.77953H98.2677V0ZM102.047 0H105.827V3.77953H102.047V0ZM105.827 0H109.606V3.77953H105.827V0ZM109.606 0H113.386V3.77953H109.606V0ZM117.165 0H120.945V3.77953H117.165V0ZM128.504 0H132.283V3.77953H128.504V0ZM132.283 0H136.063V3.77953H132.283V0ZM136.063 0H139.843V3.77953H136.063V0ZM139.843 0H143.622V3.77953H139.843V0ZM143.622 0H147.402V3.77953H143.622V0ZM147.402 0H151.181V3.77953H147.402V0ZM151.181 0H154.961V3.77953H151.181V0ZM0 3.77953H3.77953V7.55906H0V3.77953ZM22.6772 3.77953H26.4567V7.55906H22.6772V3.77953ZM30.2362 3.77953H34.0157V7.55906H30.2362V3.77953ZM34.0157 3.77953H37.7953V7.55906H34.0157V3.77953ZM41.5748 3.77953H45.3543V7.55906H41.5748V3.77953ZM45.3543 3.77953H49.1339V7.55906H45.3543V3.77953ZM52.9134 3.77953H56.6929V7.55906H52.9134V3.77953ZM60.4724 3.77953H64.252V7.55906H60.4724V3.77953ZM68.0315 3.77953H71.811V7.55906H68.0315V3.77953ZM71.811 3.77953H75.5906V7.55906H71.811V3.77953ZM86.9291 3.77953H90.7087V7.55906H86.9291V3.77953ZM90.7087 3.77953H94.4882V7.55906H90.7087V3.77953ZM98.2677 3.77953H102.047V7.55906H98.2677V3.77953ZM102.047 3.77953H105.827V7.55906H102.047V3.77953ZM109.606 3.77953H113.386V7.55906H109.606V3.77953ZM117.165 3.77953H120.945V7.55906H117.165V3.77953ZM120.945 3.77953H124.724V7.55906H120.945V3.77953ZM128.504 3.77953H132.283V7.55906H128.504V3.77953ZM151.181 3.77953H154.961V7.55906H151.181V3.77953ZM0 7.55906H3.77953V11.3386H0V7.55906ZM7.55906 7.55906H11.3386V11.3386H7.55906V7.55906ZM11.3386 7.55906H15.1181V11.3386H11.3386V7.55906ZM15.1181 7.55906H18.8976V11.3386H15.1181V7.55906ZM22.6772 7.55906H26.4567V11.3386H22.6772V7.55906ZM37.7953 7.55906H41.5748V11.3386H37.7953V7.55906ZM49.1339 7.55906H52.9134V11.3386H49.1339V7.55906ZM52.9134 7.55906H56.6929V11.3386H52.9134V7.55906ZM64.252 7.55906H68.0315V11.3386H64.252V7.55906ZM71.811 7.55906H75.5906V11.3386H71.811V7.55906ZM83.1496 7.55906H86.9291V11.3386H83.1496V7.55906ZM102.047 7.55906H105.827V11.3386H102.047V7.55906ZM105.827 7.55906H109.606V11.3386H105.827V7.55906ZM117.165 7.55906H120.945V11.3386H117.165V7.55906ZM128.504 7.55906H132.283V11.3386H128.504V7.55906ZM136.063 7.55906H139.843V11.3386H136.063V7.55906ZM139.843 7.55906H143.622V11.3386H139.843V7.55906ZM143.622 7.55906H147.402V11.3386H143.622V7.55906ZM151.181 7.55906H154.961V11.3386H151.181V7.55906ZM0 11.3386H3.77953V15.1181H0V11.3386ZM7.55906 11.3386H11.3386V15.1181H7.55906V11.3386ZM11.3386 11.3386H15.1181V15.1181H11.3386V11.3386ZM15.1181 11.3386H18.8976V15.1181H15.1181V11.3386ZM22.6772 11.3386H26.4567V15.1181H22.6772V11.3386ZM30.2362 11.3386H34.0157V15.1181H30.2362V11.3386ZM49.1339 11.3386H52.9134V15.1181H49.1339V11.3386ZM56.6929 11.3386H60.4724V15.1181H56.6929V11.3386ZM71.811 11.3386H75.5906V15.1181H71.811V11.3386ZM79.3701 11.3386H83.1496V15.1181H79.3701V11.3386ZM102.047 11.3386H105.827V15.1181H102.047V11.3386ZM113.386 11.3386H117.165V15.1181H113.386V11.3386ZM128.504 11.3386H132.283V15.1181H128.504V11.3386ZM136.063 11.3386H139.843V15.1181H136.063V11.3386ZM139.843 11.3386H143.622V15.1181H139.843V11.3386ZM143.622 11.3386H147.402V15.1181H143.622V11.3386ZM151.181 11.3386H154.961V15.1181H151.181V11.3386ZM0 15.1181H3.77953V18.8976H0V15.1181ZM7.55906 15.1181H11.3386V18.8976H7.55906V15.1181ZM11.3386 15.1181H15.1181V18.8976H11.3386V15.1181ZM15.1181 15.1181H18.8976V18.8976H15.1181V15.1181ZM22.6772 15.1181H26.4567V18.8976H22.6772V15.1181ZM37.7953 15.1181H41.5748V18.8976H37.7953V15.1181ZM56.6929 15.1181H60.4724V18.8976H56.6929V15.1181ZM60.4724 15.1181H64.252V18.8976H60.4724V15.1181ZM75.5906 15.1181H79.3701V18.8976H75.5906V15.1181ZM90.7087 15.1181H94.4882V18.8976H90.7087V15.1181ZM102.047 15.1181H105.827V18.8976H102.047V15.1181ZM105.827 15.1181H109.606V18.8976H105.827V15.1181ZM113.386 15.1181H117.165V18.8976H113.386V15.1181ZM117.165 15.1181H120.945V18.8976H117.165V15.1181ZM128.504 15.1181H132.283V18.8976H128.504V15.1181ZM136.063 15.1181H139.843V18.8976H136.063V15.1181ZM139.843 15.1181H143.622V18.8976H139.843V15.1181ZM143.622 15.1181H147.402V18.8976H143.622V15.1181ZM151.181 15.1181H154.961V18.8976H151.181V15.1181ZM0 18.8976H3.77953V22.6772H0V18.8976ZM22.6772 18.8976H26.4567V22.6772H22.6772V18.8976ZM41.5748 18.8976H45.3543V22.6772H41.5748V18.8976ZM45.3543 18.8976H49.1339V22.6772H45.3543V18.8976ZM49.1339 18.8976H52.9134V22.6772H49.1339V18.8976ZM52.9134 18.8976H56.6929V22.6772H52.9134V18.8976ZM68.0315 18.8976H71.811V22.6772H68.0315V18.8976ZM71.811 18.8976H75.5906V22.6772H71.811V18.8976ZM75.5906 18.8976H79.3701V22.6772H75.5906V18.8976ZM90.7087 18.8976H94.4882V22.6772H90.7087V18.8976ZM94.4882 18.8976H98.2677V22.6772H94.4882V18.8976ZM109.606 18.8976H113.386V22.6772H109.606V18.8976ZM113.386 18.8976H117.165V22.6772H113.386V18.8976ZM117.165 18.8976H120.945V22.6772H117.165V18.8976ZM120.945 18.8976H124.724V22.6772H120.945V18.8976ZM128.504 18.8976H132.283V22.6772H128.504V18.8976ZM151.181 18.8976H154.961V22.6772H151.181V18.8976ZM0 22.6772H3.77953V26.4567H0V22.6772ZM3.77953 22.6772H7.55906V26.4567H3.77953V22.6772ZM7.55906 22.6772H11.3386V26.4567H7.55906V22.6772ZM11.3386 22.6772H15.1181V26.4567H11.3386V22.6772ZM15.1181 22.6772H18.8976V26.4567H15.1181V22.6772ZM18.8976 22.6772H22.6772V26.4567H18.8976V22.6772ZM22.6772 22.6772H26.4567V26.4567H22.6772V22.6772ZM30.2362 22.6772H34.0157V26.4567H30.2362V22.6772ZM37.7953 22.6772H41.5748V26.4567H37.7953V22.6772ZM45.3543 22.6772H49.1339V26.4567H45.3543V22.6772ZM52.9134 22.6772H56.6929V26.4567H52.9134V22.6772ZM60.4724 22.6772H64.252V26.4567H60.4724V22.6772ZM68.0315 22.6772H71.811V26.4567H68.0315V22.6772ZM75.5906 22.6772H79.3701V26.4567H75.5906V22.6772ZM83.1496 22.6772H86.9291V26.4567H83.1496V22.6772ZM90.7087 22.6772H94.4882V26.4567H90.7087V22.6772ZM98.2677 22.6772H102.047V26.4567H98.2677V22.6772ZM105.827 22.6772H109.606V26.4567H105.827V22.6772ZM113.386 22.6772H117.165V26.4567H113.386V22.6772ZM120.945 22.6772H124.724V26.4567H120.945V22.6772ZM128.504 22.6772H132.283V26.4567H128.504V22.6772ZM132.283 22.6772H136.063V26.4567H132.283V22.6772ZM136.063 22.6772H139.843V26.4567H136.063V22.6772ZM139.843 22.6772H143.622V26.4567H139.843V22.6772ZM143.622 22.6772H147.402V26.4567H143.622V22.6772ZM147.402 22.6772H151.181V26.4567H147.402V22.6772ZM151.181 22.6772H154.961V26.4567H151.181V22.6772ZM30.2362 26.4567H34.0157V30.2362H30.2362V26.4567ZM34.0157 26.4567H37.7953V30.2362H34.0157V26.4567ZM37.7953 26.4567H41.5748V30.2362H37.7953V26.4567ZM41.5748 26.4567H45.3543V30.2362H41.5748V26.4567ZM64.252 26.4567H68.0315V30.2362H64.252V26.4567ZM68.0315 26.4567H71.811V30.2362H68.0315V26.4567ZM75.5906 26.4567H79.3701V30.2362H75.5906V26.4567ZM83.1496 26.4567H86.9291V30.2362H83.1496V26.4567ZM98.2677 26.4567H102.047V30.2362H98.2677V26.4567ZM102.047 26.4567H105.827V30.2362H102.047V26.4567ZM105.827 26.4567H109.606V30.2362H105.827V26.4567ZM109.606 26.4567H113.386V30.2362H109.606V26.4567ZM113.386 26.4567H117.165V30.2362H113.386V26.4567ZM120.945 26.4567H124.724V30.2362H120.945V26.4567ZM0 30.2362H3.77953V34.0157H0V30.2362ZM7.55906 30.2362H11.3386V34.0157H7.55906V30.2362ZM11.3386 30.2362H15.1181V34.0157H11.3386V30.2362ZM18.8976 30.2362H22.6772V34.0157H18.8976V30.2362ZM22.6772 30.2362H26.4567V34.0157H22.6772V30.2362ZM26.4567 30.2362H30.2362V34.0157H26.4567V30.2362ZM45.3543 30.2362H49.1339V34.0157H45.3543V30.2362ZM49.1339 30.2362H52.9134V34.0157H49.1339V30.2362ZM52.9134 30.2362H56.6929V34.0157H52.9134V30.2362ZM56.6929 30.2362H60.4724V34.0157H56.6929V30.2362ZM60.4724 30.2362H64.252V34.0157H60.4724V30.2362ZM64.252 30.2362H68.0315V34.0157H64.252V30.2362ZM68.0315 30.2362H71.811V34.0157H68.0315V30.2362ZM71.811 30.2362H75.5906V34.0157H71.811V30.2362ZM79.3701 30.2362H83.1496V34.0157H79.3701V30.2362ZM90.7087 30.2362H94.4882V34.0157H90.7087V30.2362ZM102.047 30.2362H105.827V34.0157H102.047V30.2362ZM109.606 30.2362H113.386V34.0157H109.606V30.2362ZM117.165 30.2362H120.945V34.0157H117.165V30.2362ZM128.504 30.2362H132.283V34.0157H128.504V30.2362ZM139.843 30.2362H143.622V34.0157H139.843V30.2362ZM147.402 30.2362H151.181V34.0157H147.402V30.2362ZM151.181 30.2362H154.961V34.0157H151.181V30.2362ZM15.1181 34.0157H18.8976V37.7953H15.1181V34.0157ZM41.5748 34.0157H45.3543V37.7953H41.5748V34.0157ZM49.1339 34.0157H52.9134V37.7953H49.1339V34.0157ZM52.9134 34.0157H56.6929V37.7953H52.9134V34.0157ZM71.811 34.0157H75.5906V37.7953H71.811V34.0157ZM75.5906 34.0157H79.3701V37.7953H75.5906V34.0157ZM79.3701 34.0157H83.1496V37.7953H79.3701V34.0157ZM83.1496 34.0157H86.9291V37.7953H83.1496V34.0157ZM86.9291 34.0157H90.7087V37.7953H86.9291V34.0157ZM94.4882 34.0157H98.2677V37.7953H94.4882V34.0157ZM105.827 34.0157H109.606V37.7953H105.827V34.0157ZM109.606 34.0157H113.386V37.7953H109.606V34.0157ZM113.386 34.0157H117.165V37.7953H113.386V34.0157ZM117.165 34.0157H120.945V37.7953H117.165V34.0157ZM128.504 34.0157H132.283V37.7953H128.504V34.0157ZM132.283 34.0157H136.063V37.7953H132.283V34.0157ZM136.063 34.0157H139.843V37.7953H136.063V34.0157ZM139.843 34.0157H143.622V37.7953H139.843V34.0157ZM143.622 34.0157H147.402V37.7953H143.622V34.0157ZM0 37.7953H3.77953V41.5748H0V37.7953ZM7.55906 37.7953H11.3386V41.5748H7.55906V37.7953ZM11.3386 37.7953H15.1181V41.5748H11.3386V37.7953ZM18.8976 37.7953H22.6772V41.5748H18.8976V37.7953ZM22.6772 37.7953H26.4567V41.5748H22.6772V37.7953ZM26.4567 37.7953H30.2362V41.5748H26.4567V37.7953ZM45.3543 37.7953H49.1339V41.5748H45.3543V37.7953ZM56.6929 37.7953H60.4724V41.5748H56.6929V37.7953ZM64.252 37.7953H68.0315V41.5748H64.252V37.7953ZM68.0315 37.7953H71.811V41.5748H68.0315V37.7953ZM79.3701 37.7953H83.1496V41.5748H79.3701V37.7953ZM86.9291 37.7953H90.7087V41.5748H86.9291V37.7953ZM90.7087 37.7953H94.4882V41.5748H90.7087V37.7953ZM109.606 37.7953H113.386V41.5748H109.606V37.7953ZM120.945 37.7953H124.724V41.5748H120.945V37.7953ZM128.504 37.7953H132.283V41.5748H128.504V37.7953ZM136.063 37.7953H139.843V41.5748H136.063V37.7953ZM139.843 37.7953H143.622V41.5748H139.843V37.7953ZM3.77953 41.5748H7.55906V45.3543H3.77953V41.5748ZM11.3386 41.5748H15.1181V45.3543H11.3386V41.5748ZM15.1181 41.5748H18.8976V45.3543H15.1181V41.5748ZM26.4567 41.5748H30.2362V45.3543H26.4567V41.5748ZM41.5748 41.5748H45.3543V45.3543H41.5748V41.5748ZM45.3543 41.5748H49.1339V45.3543H45.3543V41.5748ZM60.4724 41.5748H64.252V45.3543H60.4724V41.5748ZM64.252 41.5748H68.0315V45.3543H64.252V41.5748ZM68.0315 41.5748H71.811V45.3543H68.0315V41.5748ZM83.1496 41.5748H86.9291V45.3543H83.1496V41.5748ZM86.9291 41.5748H90.7087V45.3543H86.9291V41.5748ZM90.7087 41.5748H94.4882V45.3543H90.7087V41.5748ZM94.4882 41.5748H98.2677V45.3543H94.4882V41.5748ZM98.2677 41.5748H102.047V45.3543H98.2677V41.5748ZM113.386 41.5748H117.165V45.3543H113.386V41.5748ZM124.724 41.5748H128.504V45.3543H124.724V41.5748ZM132.283 41.5748H136.063V45.3543H132.283V41.5748ZM147.402 41.5748H151.181V45.3543H147.402V41.5748ZM151.181 41.5748H154.961V45.3543H151.181V41.5748ZM0 45.3543H3.77953V49.1339H0V45.3543ZM3.77953 45.3543H7.55906V49.1339H3.77953V45.3543ZM11.3386 45.3543H15.1181V49.1339H11.3386V45.3543ZM18.8976 45.3543H22.6772V49.1339H18.8976V45.3543ZM22.6772 45.3543H26.4567V49.1339H22.6772V45.3543ZM26.4567 45.3543H30.2362V49.1339H26.4567V45.3543ZM52.9134 45.3543H56.6929V49.1339H52.9134V45.3543ZM56.6929 45.3543H60.4724V49.1339H56.6929V45.3543ZM60.4724 45.3543H64.252V49.1339H60.4724V45.3543ZM68.0315 45.3543H71.811V49.1339H68.0315V45.3543ZM75.5906 45.3543H79.3701V49.1339H75.5906V45.3543ZM83.1496 45.3543H86.9291V49.1339H83.1496V45.3543ZM90.7087 45.3543H94.4882V49.1339H90.7087V45.3543ZM94.4882 45.3543H98.2677V49.1339H94.4882V45.3543ZM102.047 45.3543H105.827V49.1339H102.047V45.3543ZM109.606 45.3543H113.386V49.1339H109.606V45.3543ZM117.165 45.3543H120.945V49.1339H117.165V45.3543ZM120.945 45.3543H124.724V49.1339H120.945V45.3543ZM124.724 45.3543H128.504V49.1339H124.724V45.3543ZM128.504 45.3543H132.283V49.1339H128.504V45.3543ZM132.283 45.3543H136.063V49.1339H132.283V45.3543ZM139.843 45.3543H143.622V49.1339H139.843V45.3543ZM143.622 45.3543H147.402V49.1339H143.622V45.3543ZM147.402 45.3543H151.181V49.1339H147.402V45.3543ZM151.181 45.3543H154.961V49.1339H151.181V45.3543ZM0 49.1339H3.77953V52.9134H0V49.1339ZM3.77953 49.1339H7.55906V52.9134H3.77953V49.1339ZM7.55906 49.1339H11.3386V52.9134H7.55906V49.1339ZM11.3386 49.1339H15.1181V52.9134H11.3386V49.1339ZM30.2362 49.1339H34.0157V52.9134H30.2362V49.1339ZM34.0157 49.1339H37.7953V52.9134H34.0157V49.1339ZM37.7953 49.1339H41.5748V52.9134H37.7953V49.1339ZM45.3543 49.1339H49.1339V52.9134H45.3543V49.1339ZM56.6929 49.1339H60.4724V52.9134H56.6929V49.1339ZM60.4724 49.1339H64.252V52.9134H60.4724V49.1339ZM75.5906 49.1339H79.3701V52.9134H75.5906V49.1339ZM86.9291 49.1339H90.7087V52.9134H86.9291V49.1339ZM94.4882 49.1339H98.2677V52.9134H94.4882V49.1339ZM102.047 49.1339H105.827V52.9134H102.047V49.1339ZM120.945 49.1339H124.724V52.9134H120.945V49.1339ZM124.724 49.1339H128.504V52.9134H124.724V49.1339ZM132.283 49.1339H136.063V52.9134H132.283V49.1339ZM139.843 49.1339H143.622V52.9134H139.843V49.1339ZM143.622 49.1339H147.402V52.9134H143.622V49.1339ZM151.181 49.1339H154.961V52.9134H151.181V49.1339ZM7.55906 52.9134H11.3386V56.6929H7.55906V52.9134ZM18.8976 52.9134H22.6772V56.6929H18.8976V52.9134ZM22.6772 52.9134H26.4567V56.6929H22.6772V52.9134ZM26.4567 52.9134H30.2362V56.6929H26.4567V52.9134ZM34.0157 52.9134H37.7953V56.6929H34.0157V52.9134ZM45.3543 52.9134H49.1339V56.6929H45.3543V52.9134ZM60.4724 52.9134H64.252V56.6929H60.4724V52.9134ZM71.811 52.9134H75.5906V56.6929H71.811V52.9134ZM75.5906 52.9134H79.3701V56.6929H75.5906V52.9134ZM79.3701 52.9134H83.1496V56.6929H79.3701V52.9134ZM83.1496 52.9134H86.9291V56.6929H83.1496V52.9134ZM94.4882 52.9134H98.2677V56.6929H94.4882V52.9134ZM102.047 52.9134H105.827V56.6929H102.047V52.9134ZM109.606 52.9134H113.386V56.6929H109.606V52.9134ZM117.165 52.9134H120.945V56.6929H117.165V52.9134ZM120.945 52.9134H124.724V56.6929H120.945V52.9134ZM124.724 52.9134H128.504V56.6929H124.724V52.9134ZM128.504 52.9134H132.283V56.6929H128.504V52.9134ZM139.843 52.9134H143.622V56.6929H139.843V52.9134ZM151.181 52.9134H154.961V56.6929H151.181V52.9134ZM11.3386 56.6929H15.1181V60.4724H11.3386V56.6929ZM15.1181 56.6929H18.8976V60.4724H15.1181V56.6929ZM18.8976 56.6929H22.6772V60.4724H18.8976V56.6929ZM30.2362 56.6929H34.0157V60.4724H30.2362V56.6929ZM34.0157 56.6929H37.7953V60.4724H34.0157V56.6929ZM52.9134 56.6929H56.6929V60.4724H52.9134V56.6929ZM60.4724 56.6929H64.252V60.4724H60.4724V56.6929ZM64.252 56.6929H68.0315V60.4724H64.252V56.6929ZM79.3701 56.6929H83.1496V60.4724H79.3701V56.6929ZM90.7087 56.6929H94.4882V60.4724H90.7087V56.6929ZM94.4882 56.6929H98.2677V60.4724H94.4882V56.6929ZM102.047 56.6929H105.827V60.4724H102.047V56.6929ZM117.165 56.6929H120.945V60.4724H117.165V56.6929ZM120.945 56.6929H124.724V60.4724H120.945V56.6929ZM132.283 56.6929H136.063V60.4724H132.283V56.6929ZM136.063 56.6929H139.843V60.4724H136.063V56.6929ZM139.843 56.6929H143.622V60.4724H139.843V56.6929ZM15.1181 60.4724H18.8976V64.252H15.1181V60.4724ZM18.8976 60.4724H22.6772V64.252H18.8976V60.4724ZM22.6772 60.4724H26.4567V64.252H22.6772V60.4724ZM26.4567 60.4724H30.2362V64.252H26.4567V60.4724ZM34.0157 60.4724H37.7953V64.252H34.0157V60.4724ZM41.5748 60.4724H45.3543V64.252H41.5748V60.4724ZM49.1339 60.4724H52.9134V64.252H49.1339V60.4724ZM60.4724 60.4724H64.252V64.252H60.4724V60.4724ZM90.7087 60.4724H94.4882V64.252H90.7087V60.4724ZM94.4882 60.4724H98.2677V64.252H94.4882V60.4724ZM102.047 60.4724H105.827V64.252H102.047V60.4724ZM105.827 60.4724H109.606V64.252H105.827V60.4724ZM120.945 60.4724H124.724V64.252H120.945V60.4724ZM124.724 60.4724H128.504V64.252H124.724V60.4724ZM136.063 60.4724H139.843V64.252H136.063V60.4724ZM151.181 60.4724H154.961V64.252H151.181V60.4724ZM0 64.252H3.77953V68.0315H0V64.252ZM3.77953 64.252H7.55906V68.0315H3.77953V64.252ZM7.55906 64.252H11.3386V68.0315H7.55906V64.252ZM11.3386 64.252H15.1181V68.0315H11.3386V64.252ZM18.8976 64.252H22.6772V68.0315H18.8976V64.252ZM30.2362 64.252H34.0157V68.0315H30.2362V64.252ZM37.7953 64.252H41.5748V68.0315H37.7953V64.252ZM45.3543 64.252H49.1339V68.0315H45.3543V64.252ZM68.0315 64.252H71.811V68.0315H68.0315V64.252ZM79.3701 64.252H83.1496V68.0315H79.3701V64.252ZM83.1496 64.252H86.9291V68.0315H83.1496V64.252ZM90.7087 64.252H94.4882V68.0315H90.7087V64.252ZM98.2677 64.252H102.047V68.0315H98.2677V64.252ZM105.827 64.252H109.606V68.0315H105.827V64.252ZM120.945 64.252H124.724V68.0315H120.945V64.252ZM124.724 64.252H128.504V68.0315H124.724V64.252ZM132.283 64.252H136.063V68.0315H132.283V64.252ZM139.843 64.252H143.622V68.0315H139.843V64.252ZM147.402 64.252H151.181V68.0315H147.402V64.252ZM7.55906 68.0315H11.3386V71.811H7.55906V68.0315ZM11.3386 68.0315H15.1181V71.811H11.3386V68.0315ZM18.8976 68.0315H22.6772V71.811H18.8976V68.0315ZM22.6772 68.0315H26.4567V71.811H22.6772V68.0315ZM26.4567 68.0315H30.2362V71.811H26.4567V68.0315ZM41.5748 68.0315H45.3543V71.811H41.5748V68.0315ZM45.3543 68.0315H49.1339V71.811H45.3543V68.0315ZM49.1339 68.0315H52.9134V71.811H49.1339V68.0315ZM52.9134 68.0315H56.6929V71.811H52.9134V68.0315ZM68.0315 68.0315H71.811V71.811H68.0315V68.0315ZM71.811 68.0315H75.5906V71.811H71.811V68.0315ZM83.1496 68.0315H86.9291V71.811H83.1496V68.0315ZM90.7087 68.0315H94.4882V71.811H90.7087V68.0315ZM98.2677 68.0315H102.047V71.811H98.2677V68.0315ZM102.047 68.0315H105.827V71.811H102.047V68.0315ZM109.606 68.0315H113.386V71.811H109.606V68.0315ZM117.165 68.0315H120.945V71.811H117.165V68.0315ZM120.945 68.0315H124.724V71.811H120.945V68.0315ZM124.724 68.0315H128.504V71.811H124.724V68.0315ZM132.283 68.0315H136.063V71.811H132.283V68.0315ZM136.063 68.0315H139.843V71.811H136.063V68.0315ZM143.622 68.0315H147.402V71.811H143.622V68.0315ZM3.77953 71.811H7.55906V75.5906H3.77953V71.811ZM11.3386 71.811H15.1181V75.5906H11.3386V71.811ZM18.8976 71.811H22.6772V75.5906H18.8976V71.811ZM26.4567 71.811H30.2362V75.5906H26.4567V71.811ZM34.0157 71.811H37.7953V75.5906H34.0157V71.811ZM41.5748 71.811H45.3543V75.5906H41.5748V71.811ZM45.3543 71.811H49.1339V75.5906H45.3543V71.811ZM64.252 71.811H68.0315V75.5906H64.252V71.811ZM68.0315 71.811H71.811V75.5906H68.0315V71.811ZM79.3701 71.811H83.1496V75.5906H79.3701V71.811ZM90.7087 71.811H94.4882V75.5906H90.7087V71.811ZM98.2677 71.811H102.047V75.5906H98.2677V71.811ZM102.047 71.811H105.827V75.5906H102.047V71.811ZM105.827 71.811H109.606V75.5906H105.827V71.811ZM109.606 71.811H113.386V75.5906H109.606V71.811ZM113.386 71.811H117.165V75.5906H113.386V71.811ZM117.165 71.811H120.945V75.5906H117.165V71.811ZM132.283 71.811H136.063V75.5906H132.283V71.811ZM143.622 71.811H147.402V75.5906H143.622V71.811ZM147.402 71.811H151.181V75.5906H147.402V71.811ZM3.77953 75.5906H7.55906V79.3701H3.77953V75.5906ZM7.55906 75.5906H11.3386V79.3701H7.55906V75.5906ZM11.3386 75.5906H15.1181V79.3701H11.3386V75.5906ZM18.8976 75.5906H22.6772V79.3701H18.8976V75.5906ZM22.6772 75.5906H26.4567V79.3701H22.6772V75.5906ZM30.2362 75.5906H34.0157V79.3701H30.2362V75.5906ZM37.7953 75.5906H41.5748V79.3701H37.7953V75.5906ZM45.3543 75.5906H49.1339V79.3701H45.3543V75.5906ZM60.4724 75.5906H64.252V79.3701H60.4724V75.5906ZM71.811 75.5906H75.5906V79.3701H71.811V75.5906ZM86.9291 75.5906H90.7087V79.3701H86.9291V75.5906ZM94.4882 75.5906H98.2677V79.3701H94.4882V75.5906ZM105.827 75.5906H109.606V79.3701H105.827V75.5906ZM117.165 75.5906H120.945V79.3701H117.165V75.5906ZM124.724 75.5906H128.504V79.3701H124.724V75.5906ZM128.504 75.5906H132.283V79.3701H128.504V75.5906ZM132.283 75.5906H136.063V79.3701H132.283V75.5906ZM139.843 75.5906H143.622V79.3701H139.843V75.5906ZM143.622 75.5906H147.402V79.3701H143.622V75.5906ZM34.0157 79.3701H37.7953V83.1496H34.0157V79.3701ZM37.7953 79.3701H41.5748V83.1496H37.7953V79.3701ZM41.5748 79.3701H45.3543V83.1496H41.5748V79.3701ZM45.3543 79.3701H49.1339V83.1496H45.3543V79.3701ZM49.1339 79.3701H52.9134V83.1496H49.1339V79.3701ZM52.9134 79.3701H56.6929V83.1496H52.9134V79.3701ZM56.6929 79.3701H60.4724V83.1496H56.6929V79.3701ZM64.252 79.3701H68.0315V83.1496H64.252V79.3701ZM71.811 79.3701H75.5906V83.1496H71.811V79.3701ZM79.3701 79.3701H83.1496V83.1496H79.3701V79.3701ZM86.9291 79.3701H90.7087V83.1496H86.9291V79.3701ZM94.4882 79.3701H98.2677V83.1496H94.4882V79.3701ZM98.2677 79.3701H102.047V83.1496H98.2677V79.3701ZM105.827 79.3701H109.606V83.1496H105.827V79.3701ZM109.606 79.3701H113.386V83.1496H109.606V79.3701ZM117.165 79.3701H120.945V83.1496H117.165V79.3701ZM120.945 79.3701H124.724V83.1496H120.945V79.3701ZM124.724 79.3701H128.504V83.1496H124.724V79.3701ZM128.504 79.3701H132.283V83.1496H128.504V79.3701ZM136.063 79.3701H139.843V83.1496H136.063V79.3701ZM139.843 79.3701H143.622V83.1496H139.843V79.3701ZM143.622 79.3701H147.402V83.1496H143.622V79.3701ZM147.402 79.3701H151.181V83.1496H147.402V79.3701ZM151.181 79.3701H154.961V83.1496H151.181V79.3701ZM0 83.1496H3.77953V86.9291H0V83.1496ZM15.1181 83.1496H18.8976V86.9291H15.1181V83.1496ZM18.8976 83.1496H22.6772V86.9291H18.8976V83.1496ZM22.6772 83.1496H26.4567V86.9291H22.6772V83.1496ZM26.4567 83.1496H30.2362V86.9291H26.4567V83.1496ZM34.0157 83.1496H37.7953V86.9291H34.0157V83.1496ZM37.7953 83.1496H41.5748V86.9291H37.7953V83.1496ZM45.3543 83.1496H49.1339V86.9291H45.3543V83.1496ZM60.4724 83.1496H64.252V86.9291H60.4724V83.1496ZM64.252 83.1496H68.0315V86.9291H64.252V83.1496ZM79.3701 83.1496H83.1496V86.9291H79.3701V83.1496ZM86.9291 83.1496H90.7087V86.9291H86.9291V83.1496ZM90.7087 83.1496H94.4882V86.9291H90.7087V83.1496ZM94.4882 83.1496H98.2677V86.9291H94.4882V83.1496ZM105.827 83.1496H109.606V86.9291H105.827V83.1496ZM113.386 83.1496H117.165V86.9291H113.386V83.1496ZM124.724 83.1496H128.504V86.9291H124.724V83.1496ZM128.504 83.1496H132.283V86.9291H128.504V83.1496ZM147.402 83.1496H151.181V86.9291H147.402V83.1496ZM18.8976 86.9291H22.6772V90.7087H18.8976V86.9291ZM34.0157 86.9291H37.7953V90.7087H34.0157V86.9291ZM37.7953 86.9291H41.5748V90.7087H37.7953V86.9291ZM41.5748 86.9291H45.3543V90.7087H41.5748V86.9291ZM49.1339 86.9291H52.9134V90.7087H49.1339V86.9291ZM52.9134 86.9291H56.6929V90.7087H52.9134V86.9291ZM56.6929 86.9291H60.4724V90.7087H56.6929V86.9291ZM68.0315 86.9291H71.811V90.7087H68.0315V86.9291ZM71.811 86.9291H75.5906V90.7087H71.811V86.9291ZM75.5906 86.9291H79.3701V90.7087H75.5906V86.9291ZM90.7087 86.9291H94.4882V90.7087H90.7087V86.9291ZM94.4882 86.9291H98.2677V90.7087H94.4882V86.9291ZM98.2677 86.9291H102.047V90.7087H98.2677V86.9291ZM102.047 86.9291H105.827V90.7087H102.047V86.9291ZM105.827 86.9291H109.606V90.7087H105.827V86.9291ZM113.386 86.9291H117.165V90.7087H113.386V86.9291ZM117.165 86.9291H120.945V90.7087H117.165V86.9291ZM120.945 86.9291H124.724V90.7087H120.945V86.9291ZM128.504 86.9291H132.283V90.7087H128.504V86.9291ZM136.063 86.9291H139.843V90.7087H136.063V86.9291ZM139.843 86.9291H143.622V90.7087H139.843V86.9291ZM143.622 86.9291H147.402V90.7087H143.622V86.9291ZM147.402 86.9291H151.181V90.7087H147.402V86.9291ZM151.181 86.9291H154.961V90.7087H151.181V86.9291ZM3.77953 90.7087H7.55906V94.4882H3.77953V90.7087ZM7.55906 90.7087H11.3386V94.4882H7.55906V90.7087ZM11.3386 90.7087H15.1181V94.4882H11.3386V90.7087ZM15.1181 90.7087H18.8976V94.4882H15.1181V90.7087ZM22.6772 90.7087H26.4567V94.4882H22.6772V90.7087ZM26.4567 90.7087H30.2362V94.4882H26.4567V90.7087ZM34.0157 90.7087H37.7953V94.4882H34.0157V90.7087ZM45.3543 90.7087H49.1339V94.4882H45.3543V90.7087ZM49.1339 90.7087H52.9134V94.4882H49.1339V90.7087ZM56.6929 90.7087H60.4724V94.4882H56.6929V90.7087ZM60.4724 90.7087H64.252V94.4882H60.4724V90.7087ZM64.252 90.7087H68.0315V94.4882H64.252V90.7087ZM71.811 90.7087H75.5906V94.4882H71.811V90.7087ZM75.5906 90.7087H79.3701V94.4882H75.5906V90.7087ZM83.1496 90.7087H86.9291V94.4882H83.1496V90.7087ZM90.7087 90.7087H94.4882V94.4882H90.7087V90.7087ZM94.4882 90.7087H98.2677V94.4882H94.4882V90.7087ZM98.2677 90.7087H102.047V94.4882H98.2677V90.7087ZM102.047 90.7087H105.827V94.4882H102.047V90.7087ZM105.827 90.7087H109.606V94.4882H105.827V90.7087ZM109.606 90.7087H113.386V94.4882H109.606V90.7087ZM117.165 90.7087H120.945V94.4882H117.165V90.7087ZM120.945 90.7087H124.724V94.4882H120.945V90.7087ZM124.724 90.7087H128.504V94.4882H124.724V90.7087ZM128.504 90.7087H132.283V94.4882H128.504V90.7087ZM136.063 90.7087H139.843V94.4882H136.063V90.7087ZM139.843 90.7087H143.622V94.4882H139.843V90.7087ZM147.402 90.7087H151.181V94.4882H147.402V90.7087ZM3.77953 94.4882H7.55906V98.2677H3.77953V94.4882ZM7.55906 94.4882H11.3386V98.2677H7.55906V94.4882ZM11.3386 94.4882H15.1181V98.2677H11.3386V94.4882ZM18.8976 94.4882H22.6772V98.2677H18.8976V94.4882ZM26.4567 94.4882H30.2362V98.2677H26.4567V94.4882ZM30.2362 94.4882H34.0157V98.2677H30.2362V94.4882ZM37.7953 94.4882H41.5748V98.2677H37.7953V94.4882ZM41.5748 94.4882H45.3543V98.2677H41.5748V94.4882ZM60.4724 94.4882H64.252V98.2677H60.4724V94.4882ZM71.811 94.4882H75.5906V98.2677H71.811V94.4882ZM83.1496 94.4882H86.9291V98.2677H83.1496V94.4882ZM90.7087 94.4882H94.4882V98.2677H90.7087V94.4882ZM94.4882 94.4882H98.2677V98.2677H94.4882V94.4882ZM98.2677 94.4882H102.047V98.2677H98.2677V94.4882ZM102.047 94.4882H105.827V98.2677H102.047V94.4882ZM105.827 94.4882H109.606V98.2677H105.827V94.4882ZM113.386 94.4882H117.165V98.2677H113.386V94.4882ZM117.165 94.4882H120.945V98.2677H117.165V94.4882ZM120.945 94.4882H124.724V98.2677H120.945V94.4882ZM136.063 94.4882H139.843V98.2677H136.063V94.4882ZM139.843 94.4882H143.622V98.2677H139.843V94.4882ZM143.622 94.4882H147.402V98.2677H143.622V94.4882ZM147.402 94.4882H151.181V98.2677H147.402V94.4882ZM151.181 94.4882H154.961V98.2677H151.181V94.4882ZM11.3386 98.2677H15.1181V102.047H11.3386V98.2677ZM22.6772 98.2677H26.4567V102.047H22.6772V98.2677ZM26.4567 98.2677H30.2362V102.047H26.4567V98.2677ZM30.2362 98.2677H34.0157V102.047H30.2362V98.2677ZM45.3543 98.2677H49.1339V102.047H45.3543V98.2677ZM49.1339 98.2677H52.9134V102.047H49.1339V98.2677ZM52.9134 98.2677H56.6929V102.047H52.9134V98.2677ZM56.6929 98.2677H60.4724V102.047H56.6929V98.2677ZM60.4724 98.2677H64.252V102.047H60.4724V98.2677ZM64.252 98.2677H68.0315V102.047H64.252V98.2677ZM71.811 98.2677H75.5906V102.047H71.811V98.2677ZM75.5906 98.2677H79.3701V102.047H75.5906V98.2677ZM90.7087 98.2677H94.4882V102.047H90.7087V98.2677ZM98.2677 98.2677H102.047V102.047H98.2677V98.2677ZM113.386 98.2677H117.165V102.047H113.386V98.2677ZM117.165 98.2677H120.945V102.047H117.165V98.2677ZM124.724 98.2677H128.504V102.047H124.724V98.2677ZM128.504 98.2677H132.283V102.047H128.504V98.2677ZM139.843 98.2677H143.622V102.047H139.843V98.2677ZM0 102.047H3.77953V105.827H0V102.047ZM3.77953 102.047H7.55906V105.827H3.77953V102.047ZM7.55906 102.047H11.3386V105.827H7.55906V102.047ZM11.3386 102.047H15.1181V105.827H11.3386V102.047ZM15.1181 102.047H18.8976V105.827H15.1181V102.047ZM26.4567 102.047H30.2362V105.827H26.4567V102.047ZM41.5748 102.047H45.3543V105.827H41.5748V102.047ZM56.6929 102.047H60.4724V105.827H56.6929V102.047ZM68.0315 102.047H71.811V105.827H68.0315V102.047ZM75.5906 102.047H79.3701V105.827H75.5906V102.047ZM79.3701 102.047H83.1496V105.827H79.3701V102.047ZM83.1496 102.047H86.9291V105.827H83.1496V102.047ZM98.2677 102.047H102.047V105.827H98.2677V102.047ZM105.827 102.047H109.606V105.827H105.827V102.047ZM113.386 102.047H117.165V105.827H113.386V102.047ZM128.504 102.047H132.283V105.827H128.504V102.047ZM132.283 102.047H136.063V105.827H132.283V102.047ZM139.843 102.047H143.622V105.827H139.843V102.047ZM147.402 102.047H151.181V105.827H147.402V102.047ZM151.181 102.047H154.961V105.827H151.181V102.047ZM7.55906 105.827H11.3386V109.606H7.55906V105.827ZM11.3386 105.827H15.1181V109.606H11.3386V105.827ZM18.8976 105.827H22.6772V109.606H18.8976V105.827ZM22.6772 105.827H26.4567V109.606H22.6772V105.827ZM26.4567 105.827H30.2362V109.606H26.4567V105.827ZM30.2362 105.827H34.0157V109.606H30.2362V105.827ZM41.5748 105.827H45.3543V109.606H41.5748V105.827ZM49.1339 105.827H52.9134V109.606H49.1339V105.827ZM52.9134 105.827H56.6929V109.606H52.9134V105.827ZM64.252 105.827H68.0315V109.606H64.252V105.827ZM75.5906 105.827H79.3701V109.606H75.5906V105.827ZM79.3701 105.827H83.1496V109.606H79.3701V105.827ZM83.1496 105.827H86.9291V109.606H83.1496V105.827ZM86.9291 105.827H90.7087V109.606H86.9291V105.827ZM90.7087 105.827H94.4882V109.606H90.7087V105.827ZM94.4882 105.827H98.2677V109.606H94.4882V105.827ZM102.047 105.827H105.827V109.606H102.047V105.827ZM105.827 105.827H109.606V109.606H105.827V105.827ZM117.165 105.827H120.945V109.606H117.165V105.827ZM136.063 105.827H139.843V109.606H136.063V105.827ZM139.843 105.827H143.622V109.606H139.843V105.827ZM3.77953 109.606H7.55906V113.386H3.77953V109.606ZM7.55906 109.606H11.3386V113.386H7.55906V109.606ZM26.4567 109.606H30.2362V113.386H26.4567V109.606ZM30.2362 109.606H34.0157V113.386H30.2362V109.606ZM45.3543 109.606H49.1339V113.386H45.3543V109.606ZM52.9134 109.606H56.6929V113.386H52.9134V109.606ZM56.6929 109.606H60.4724V113.386H56.6929V109.606ZM64.252 109.606H68.0315V113.386H64.252V109.606ZM68.0315 109.606H71.811V113.386H68.0315V109.606ZM71.811 109.606H75.5906V113.386H71.811V109.606ZM75.5906 109.606H79.3701V113.386H75.5906V109.606ZM79.3701 109.606H83.1496V113.386H79.3701V109.606ZM98.2677 109.606H102.047V113.386H98.2677V109.606ZM105.827 109.606H109.606V113.386H105.827V109.606ZM109.606 109.606H113.386V113.386H109.606V109.606ZM117.165 109.606H120.945V113.386H117.165V109.606ZM124.724 109.606H128.504V113.386H124.724V109.606ZM128.504 109.606H132.283V113.386H128.504V109.606ZM139.843 109.606H143.622V113.386H139.843V109.606ZM147.402 109.606H151.181V113.386H147.402V109.606ZM0 113.386H3.77953V117.165H0V113.386ZM15.1181 113.386H18.8976V117.165H15.1181V113.386ZM18.8976 113.386H22.6772V117.165H18.8976V113.386ZM22.6772 113.386H26.4567V117.165H22.6772V113.386ZM26.4567 113.386H30.2362V117.165H26.4567V113.386ZM30.2362 113.386H34.0157V117.165H30.2362V113.386ZM34.0157 113.386H37.7953V117.165H34.0157V113.386ZM37.7953 113.386H41.5748V117.165H37.7953V113.386ZM41.5748 113.386H45.3543V117.165H41.5748V113.386ZM45.3543 113.386H49.1339V117.165H45.3543V113.386ZM60.4724 113.386H64.252V117.165H60.4724V113.386ZM64.252 113.386H68.0315V117.165H64.252V113.386ZM68.0315 113.386H71.811V117.165H68.0315V113.386ZM71.811 113.386H75.5906V117.165H71.811V113.386ZM79.3701 113.386H83.1496V117.165H79.3701V113.386ZM83.1496 113.386H86.9291V117.165H83.1496V113.386ZM90.7087 113.386H94.4882V117.165H90.7087V113.386ZM94.4882 113.386H98.2677V117.165H94.4882V113.386ZM113.386 113.386H117.165V117.165H113.386V113.386ZM132.283 113.386H136.063V117.165H132.283V113.386ZM136.063 113.386H139.843V117.165H136.063V113.386ZM139.843 113.386H143.622V117.165H139.843V113.386ZM11.3386 117.165H15.1181V120.945H11.3386V117.165ZM30.2362 117.165H34.0157V120.945H30.2362V117.165ZM34.0157 117.165H37.7953V120.945H34.0157V117.165ZM37.7953 117.165H41.5748V120.945H37.7953V117.165ZM49.1339 117.165H52.9134V120.945H49.1339V117.165ZM52.9134 117.165H56.6929V120.945H52.9134V117.165ZM60.4724 117.165H64.252V120.945H60.4724V117.165ZM71.811 117.165H75.5906V120.945H71.811V117.165ZM86.9291 117.165H90.7087V120.945H86.9291V117.165ZM98.2677 117.165H102.047V120.945H98.2677V117.165ZM102.047 117.165H105.827V120.945H102.047V117.165ZM120.945 117.165H124.724V120.945H120.945V117.165ZM143.622 117.165H147.402V120.945H143.622V117.165ZM151.181 117.165H154.961V120.945H151.181V117.165ZM3.77953 120.945H7.55906V124.724H3.77953V120.945ZM7.55906 120.945H11.3386V124.724H7.55906V120.945ZM11.3386 120.945H15.1181V124.724H11.3386V120.945ZM15.1181 120.945H18.8976V124.724H15.1181V120.945ZM18.8976 120.945H22.6772V124.724H18.8976V120.945ZM22.6772 120.945H26.4567V124.724H22.6772V120.945ZM34.0157 120.945H37.7953V124.724H34.0157V120.945ZM37.7953 120.945H41.5748V124.724H37.7953V120.945ZM49.1339 120.945H52.9134V124.724H49.1339V120.945ZM60.4724 120.945H64.252V124.724H60.4724V120.945ZM64.252 120.945H68.0315V124.724H64.252V120.945ZM75.5906 120.945H79.3701V124.724H75.5906V120.945ZM83.1496 120.945H86.9291V124.724H83.1496V120.945ZM86.9291 120.945H90.7087V124.724H86.9291V120.945ZM94.4882 120.945H98.2677V124.724H94.4882V120.945ZM105.827 120.945H109.606V124.724H105.827V120.945ZM109.606 120.945H113.386V124.724H109.606V120.945ZM113.386 120.945H117.165V124.724H113.386V120.945ZM120.945 120.945H124.724V124.724H120.945V120.945ZM124.724 120.945H128.504V124.724H124.724V120.945ZM128.504 120.945H132.283V124.724H128.504V120.945ZM132.283 120.945H136.063V124.724H132.283V120.945ZM136.063 120.945H139.843V124.724H136.063V120.945ZM139.843 120.945H143.622V124.724H139.843V120.945ZM143.622 120.945H147.402V124.724H143.622V120.945ZM30.2362 124.724H34.0157V128.504H30.2362V124.724ZM34.0157 124.724H37.7953V128.504H34.0157V124.724ZM64.252 124.724H68.0315V128.504H64.252V124.724ZM71.811 124.724H75.5906V128.504H71.811V124.724ZM79.3701 124.724H83.1496V128.504H79.3701V124.724ZM83.1496 124.724H86.9291V128.504H83.1496V124.724ZM86.9291 124.724H90.7087V128.504H86.9291V124.724ZM90.7087 124.724H94.4882V128.504H90.7087V124.724ZM94.4882 124.724H98.2677V128.504H94.4882V124.724ZM105.827 124.724H109.606V128.504H105.827V124.724ZM109.606 124.724H113.386V128.504H109.606V124.724ZM113.386 124.724H117.165V128.504H113.386V124.724ZM120.945 124.724H124.724V128.504H120.945V124.724ZM136.063 124.724H139.843V128.504H136.063V124.724ZM151.181 124.724H154.961V128.504H151.181V124.724ZM0 128.504H3.77953V132.283H0V128.504ZM3.77953 128.504H7.55906V132.283H3.77953V128.504ZM7.55906 128.504H11.3386V132.283H7.55906V128.504ZM11.3386 128.504H15.1181V132.283H11.3386V128.504ZM15.1181 128.504H18.8976V132.283H15.1181V128.504ZM18.8976 128.504H22.6772V132.283H18.8976V128.504ZM22.6772 128.504H26.4567V132.283H22.6772V128.504ZM30.2362 128.504H34.0157V132.283H30.2362V128.504ZM34.0157 128.504H37.7953V132.283H34.0157V128.504ZM45.3543 128.504H49.1339V132.283H45.3543V128.504ZM52.9134 128.504H56.6929V132.283H52.9134V128.504ZM56.6929 128.504H60.4724V132.283H56.6929V128.504ZM60.4724 128.504H64.252V132.283H60.4724V128.504ZM68.0315 128.504H71.811V132.283H68.0315V128.504ZM86.9291 128.504H90.7087V132.283H86.9291V128.504ZM98.2677 128.504H102.047V132.283H98.2677V128.504ZM109.606 128.504H113.386V132.283H109.606V128.504ZM120.945 128.504H124.724V132.283H120.945V128.504ZM128.504 128.504H132.283V132.283H128.504V128.504ZM136.063 128.504H139.843V132.283H136.063V128.504ZM139.843 128.504H143.622V132.283H139.843V128.504ZM143.622 128.504H147.402V132.283H143.622V128.504ZM147.402 128.504H151.181V132.283H147.402V128.504ZM0 132.283H3.77953V136.063H0V132.283ZM22.6772 132.283H26.4567V136.063H22.6772V132.283ZM30.2362 132.283H34.0157V136.063H30.2362V132.283ZM49.1339 132.283H52.9134V136.063H49.1339V132.283ZM52.9134 132.283H56.6929V136.063H52.9134V132.283ZM56.6929 132.283H60.4724V136.063H56.6929V132.283ZM64.252 132.283H68.0315V136.063H64.252V132.283ZM90.7087 132.283H94.4882V136.063H90.7087V132.283ZM94.4882 132.283H98.2677V136.063H94.4882V132.283ZM102.047 132.283H105.827V136.063H102.047V132.283ZM109.606 132.283H113.386V136.063H109.606V132.283ZM117.165 132.283H120.945V136.063H117.165V132.283ZM120.945 132.283H124.724V136.063H120.945V132.283ZM136.063 132.283H139.843V136.063H136.063V132.283ZM143.622 132.283H147.402V136.063H143.622V132.283ZM147.402 132.283H151.181V136.063H147.402V132.283ZM0 136.063H3.77953V139.843H0V136.063ZM7.55906 136.063H11.3386V139.843H7.55906V136.063ZM11.3386 136.063H15.1181V139.843H11.3386V136.063ZM15.1181 136.063H18.8976V139.843H15.1181V136.063ZM22.6772 136.063H26.4567V139.843H22.6772V136.063ZM34.0157 136.063H37.7953V139.843H34.0157V136.063ZM41.5748 136.063H45.3543V139.843H41.5748V136.063ZM45.3543 136.063H49.1339V139.843H45.3543V136.063ZM52.9134 136.063H56.6929V139.843H52.9134V136.063ZM56.6929 136.063H60.4724V139.843H56.6929V136.063ZM60.4724 136.063H64.252V139.843H60.4724V136.063ZM75.5906 136.063H79.3701V139.843H75.5906V136.063ZM79.3701 136.063H83.1496V139.843H79.3701V136.063ZM90.7087 136.063H94.4882V139.843H90.7087V136.063ZM113.386 136.063H117.165V139.843H113.386V136.063ZM120.945 136.063H124.724V139.843H120.945V136.063ZM124.724 136.063H128.504V139.843H124.724V136.063ZM128.504 136.063H132.283V139.843H128.504V136.063ZM132.283 136.063H136.063V139.843H132.283V136.063ZM136.063 136.063H139.843V139.843H136.063V136.063ZM147.402 136.063H151.181V139.843H147.402V136.063ZM151.181 136.063H154.961V139.843H151.181V136.063ZM0 139.843H3.77953V143.622H0V139.843ZM7.55906 139.843H11.3386V143.622H7.55906V139.843ZM11.3386 139.843H15.1181V143.622H11.3386V139.843ZM15.1181 139.843H18.8976V143.622H15.1181V139.843ZM22.6772 139.843H26.4567V143.622H22.6772V139.843ZM30.2362 139.843H34.0157V143.622H30.2362V139.843ZM34.0157 139.843H37.7953V143.622H34.0157V139.843ZM45.3543 139.843H49.1339V143.622H45.3543V139.843ZM52.9134 139.843H56.6929V143.622H52.9134V139.843ZM60.4724 139.843H64.252V143.622H60.4724V139.843ZM71.811 139.843H75.5906V143.622H71.811V139.843ZM75.5906 139.843H79.3701V143.622H75.5906V139.843ZM83.1496 139.843H86.9291V143.622H83.1496V139.843ZM90.7087 139.843H94.4882V143.622H90.7087V139.843ZM102.047 139.843H105.827V143.622H102.047V139.843ZM105.827 139.843H109.606V143.622H105.827V139.843ZM109.606 139.843H113.386V143.622H109.606V139.843ZM113.386 139.843H117.165V143.622H113.386V139.843ZM117.165 139.843H120.945V143.622H117.165V139.843ZM120.945 139.843H124.724V143.622H120.945V139.843ZM124.724 139.843H128.504V143.622H124.724V139.843ZM132.283 139.843H136.063V143.622H132.283V139.843ZM136.063 139.843H139.843V143.622H136.063V139.843ZM147.402 139.843H151.181V143.622H147.402V139.843ZM151.181 139.843H154.961V143.622H151.181V139.843ZM0 143.622H3.77953V147.402H0V143.622ZM7.55906 143.622H11.3386V147.402H7.55906V143.622ZM11.3386 143.622H15.1181V147.402H11.3386V143.622ZM15.1181 143.622H18.8976V147.402H15.1181V143.622ZM22.6772 143.622H26.4567V147.402H22.6772V143.622ZM30.2362 143.622H34.0157V147.402H30.2362V143.622ZM37.7953 143.622H41.5748V147.402H37.7953V143.622ZM45.3543 143.622H49.1339V147.402H45.3543V143.622ZM56.6929 143.622H60.4724V147.402H56.6929V143.622ZM60.4724 143.622H64.252V147.402H60.4724V143.622ZM64.252 143.622H68.0315V147.402H64.252V143.622ZM71.811 143.622H75.5906V147.402H71.811V143.622ZM90.7087 143.622H94.4882V147.402H90.7087V143.622ZM94.4882 143.622H98.2677V147.402H94.4882V143.622ZM105.827 143.622H109.606V147.402H105.827V143.622ZM113.386 143.622H117.165V147.402H113.386V143.622ZM117.165 143.622H120.945V147.402H117.165V143.622ZM132.283 143.622H136.063V147.402H132.283V143.622ZM139.843 143.622H143.622V147.402H139.843V143.622ZM151.181 143.622H154.961V147.402H151.181V143.622ZM0 147.402H3.77953V151.181H0V147.402ZM22.6772 147.402H26.4567V151.181H22.6772V147.402ZM37.7953 147.402H41.5748V151.181H37.7953V147.402ZM52.9134 147.402H56.6929V151.181H52.9134V147.402ZM56.6929 147.402H60.4724V151.181H56.6929V147.402ZM60.4724 147.402H64.252V151.181H60.4724V147.402ZM68.0315 147.402H71.811V151.181H68.0315V147.402ZM75.5906 147.402H79.3701V151.181H75.5906V147.402ZM79.3701 147.402H83.1496V151.181H79.3701V147.402ZM86.9291 147.402H90.7087V151.181H86.9291V147.402ZM90.7087 147.402H94.4882V151.181H90.7087V147.402ZM98.2677 147.402H102.047V151.181H98.2677V147.402ZM105.827 147.402H109.606V151.181H105.827V147.402ZM113.386 147.402H117.165V151.181H113.386V147.402ZM120.945 147.402H124.724V151.181H120.945V147.402ZM136.063 147.402H139.843V151.181H136.063V147.402ZM143.622 147.402H147.402V151.181H143.622V147.402ZM147.402 147.402H151.181V151.181H147.402V147.402ZM0 151.181H3.77953V154.961H0V151.181ZM3.77953 151.181H7.55906V154.961H3.77953V151.181ZM7.55906 151.181H11.3386V154.961H7.55906V151.181ZM11.3386 151.181H15.1181V154.961H11.3386V151.181ZM15.1181 151.181H18.8976V154.961H15.1181V151.181ZM18.8976 151.181H22.6772V154.961H18.8976V151.181ZM22.6772 151.181H26.4567V154.961H22.6772V151.181ZM30.2362 151.181H34.0157V154.961H30.2362V151.181ZM37.7953 151.181H41.5748V154.961H37.7953V151.181ZM52.9134 151.181H56.6929V154.961H52.9134V151.181ZM56.6929 151.181H60.4724V154.961H56.6929V151.181ZM79.3701 151.181H83.1496V154.961H79.3701V151.181ZM83.1496 151.181H86.9291V154.961H83.1496V151.181ZM86.9291 151.181H90.7087V154.961H86.9291V151.181ZM90.7087 151.181H94.4882V154.961H90.7087V151.181ZM94.4882 151.181H98.2677V154.961H94.4882V151.181ZM102.047 151.181H105.827V154.961H102.047V151.181ZM113.386 151.181H117.165V154.961H113.386V151.181ZM117.165 151.181H120.945V154.961H117.165V151.181ZM120.945 151.181H124.724V154.961H120.945V151.181ZM124.724 151.181H128.504V154.961H124.724V151.181ZM128.504 151.181H132.283V154.961H128.504V151.181ZM132.283 151.181H136.063V154.961H132.283V151.181ZM139.843 151.181H143.622V154.961H139.843V151.181ZM143.622 151.181H147.402V154.961H143.622V151.181ZM147.402 151.181H151.181V154.961H147.402V151.181Z" fill="#FAF0E6" fill-opacity="0.5"/>
</svg>
